<svg xmlns="http://www.w3.org/2000/svg" viewBox="0 0 1200 630" width="1200" height="630">
  <rect width="100%" height="100%" fill="#F1F5F9"/>
  
  <g transform="translate(850, 350) scale(1.5) rotate(-15)" opacity="0.05" fill="#1E293B">
    <path d="M 100 350 C 200 250, 312 250, 412 162" fill="none" stroke="#1E293B" stroke-width="48" stroke-linecap="round" />
    <circle cx="100" cy="350" r="24" />
    <circle cx="412" cy="162" r="24" />
  </g>

  <g transform="translate(100, 220)">
    <text font-family="Verdana, Geneva, sans-serif" font-size="28" font-weight="bold" fill="#0EA5E9" letter-spacing="4">🏂 GRATRY SNOW</text>
    
    <text font-family="Verdana, Geneva, sans-serif" font-size="64" font-weight="bold" fill="#1E293B" y="80">平花雪庫</text>
    
    <text font-family="Verdana, Geneva, sans-serif" font-size="28" fill="#475569" y="140">Snowboard Ground Trick Library</text>
    
    <text font-family="Verdana, Geneva, sans-serif" font-size="22" fill="#94A3B8" y="220">chienhsiang-hung.github.io/gratry-snow</text>
  </g>

  <g transform="translate(750, 140) scale(0.7)">
    <circle cx="256" cy="256" r="248" fill="#F1F5F9" fill-opacity="0.9" stroke="#E2E8F0" stroke-width="4"/>

    <path d="M 120 256 C 120 180, 180 120, 256 120" fill="none" stroke="#0EA5E9" stroke-width="24" stroke-linecap="round" stroke-opacity="0.8"/>
    <path d="M 392 256 C 392 332, 332 392, 256 392" fill="none" stroke="#0EA5E9" stroke-width="24" stroke-linecap="round" stroke-opacity="0.8"/>

    <g fill="#1E293B" stroke="#1E293B">
        <path d="M 100 350 C 200 250, 312 250, 412 162" fill="none" stroke-width="48" stroke-linecap="round" />
        <circle cx="100" cy="350" r="24" />
        <circle cx="412" cy="162" r="24" />
    </g>
  </g>
</svg>
